<svg height="466pt" viewBox="0 0 466.51146 466" width="466pt" xmlns="http://www.w3.org/2000/svg"><path d="m11.71875 455.046875c15.621094 15.621094 40.949219 15.621094 56.570312 0l16.964844-16.96875-56.566406-56.566406-16.96875 16.96875c-15.621094 15.621093-15.621094 40.945312 0 56.566406zm0 0" fill="#3440db"/><path d="m27.710938 414.496094c-12.527344 12.527344-15.296876 31.8125-6.800782 47.359375-3.394531-1.78125-6.496094-4.078125-9.199218-6.800781-15.613282-15.617188-15.613282-40.9375 0-56.558594l16.960937-16.960938 16 16zm0 0" fill="#2730a4"/><path d="m90.910156 443.734375c6.25 6.253906 16.382813 6.253906 22.632813 0l73.535156-73.535156-90.511719-90.511719-73.535156 73.535156c-6.25 6.25-6.25 16.382813 0 22.632813zm0 0" fill="#d80027"/><path d="m38.992188 369.214844c-3.003907 3.003906-4.691407 7.074218-4.691407 11.320312s1.6875 8.320313 4.691407 11.320313l-16-16c-3.003907-3-4.691407-7.074219-4.691407-11.320313s1.6875-8.316406 4.691407-11.320312l73.597656-73.519532 16 16zm0 0" fill="#bd0022"/><path d="m328.503906 330.601562-192.335937-192.335937-39.601563 141.421875 90.511719 90.511719zm0 0" fill="#d1d3d4"/><path d="m152.191406 154.253906-39.601562 141.441406-16-16 39.601562-141.441406zm0 0" fill="#9d9e9f"/><g fill="#d80027"><path d="m249.304688 251.398438 5.65625-5.65625c6.246093-6.246094 6.246093-16.375 0-22.621094l-11.3125-11.3125c-6.25-6.246094-16.378907-6.246094-22.625 0l-5.65625 5.65625zm0 0"/><path d="m418.511719 160.253906v-56h-56v16h28.6875l-37.28125 37.28125-40-32-45.0625 45.066406 11.3125 11.308594 34.933593-34.933594 40 32 47.410157-47.410156v28.6875zm0 0"/><path d="m259.101562 42.976562 40 32 47.410157-47.410156v28.6875h16v-56h-56v16h28.6875l-37.28125 37.28125-40-32-45.0625 45.066406 11.3125 11.308594zm0 0"/><path d="m410.511719 216.253906v16h28.6875l-37.28125 37.28125-40-32-45.0625 45.066406 11.3125 11.308594 34.933593-34.933594 40 32 47.410157-47.410156v28.6875h16v-56zm0 0"/></g></svg>